<svg width="165" height="42" viewBox="0 0 165 42" fill="none" xmlns="http://www.w3.org/2000/svg">
<path d="M159.029 9.91334H156.826V6.77541H159.029C159.291 7.62908 159.786 8.05591 160.513 8.05591C161.038 8.05591 161.301 7.84484 161.301 7.42269C161.301 7.20224 161.21 7.01931 161.027 6.87391C160.83 6.71443 160.415 6.49398 159.781 6.21255C158.984 5.85138 158.398 5.53946 158.022 5.2768C157.671 5.03758 157.37 4.7069 157.122 4.28476C156.873 3.86731 156.749 3.40529 156.749 2.89872C156.749 1.98877 157.045 1.27816 157.636 0.766895C158.222 0.255632 158.944 0 159.803 0C160.661 0 161.388 0.243905 161.984 0.731716V0.126643H164.2V2.91279H162.012C161.744 2.14355 161.271 1.75893 160.591 1.75893C160.112 1.75893 159.873 1.96297 159.873 2.37104C159.873 2.56804 159.941 2.71579 160.077 2.81429C160.208 2.91748 160.633 3.14497 161.35 3.49676C162.312 3.97519 162.955 4.32463 163.278 4.54508C163.442 4.65296 163.609 4.8054 163.778 5.0024C163.951 5.19471 164.094 5.39406 164.207 5.60044C164.465 6.06011 164.594 6.5573 164.594 7.09202C164.594 7.91285 164.289 8.60704 163.679 9.17459C163.069 9.75152 162.3 10.04 161.371 10.04C160.508 10.04 159.727 9.78435 159.029 9.27309V9.91334Z" fill="#026A00"/>
<path d="M150.185 2.61026L149.263 5.31901H151.015L150.185 2.61026ZM149.263 9.91334H145.386V7.57045H146.132L147.968 2.46954H147.18V0.126644H154.216V2.46954H153.428L155.3 7.57045H156.017V9.91334H150.909V7.76745H151.768L151.395 6.53619H148.89L148.461 7.76745H149.263V9.91334Z" fill="#026A00"/>
<path d="M144.711 9.91334H139.132V7.57045H140.032V2.46954H139.132V0.126644H144.711V2.46954H143.817V7.57045H144.711V9.91334Z" fill="#026A00"/>
<path d="M131.526 2.27254V4.13701H131.948C132.502 4.13701 132.877 4.12059 133.074 4.08776C133.285 4.05493 133.463 3.96112 133.608 3.80633C133.754 3.66093 133.827 3.46158 133.827 3.20829C133.827 2.95501 133.754 2.75332 133.608 2.60322C133.463 2.44843 133.278 2.35462 133.053 2.32179C132.837 2.28896 132.443 2.27254 131.871 2.27254H131.526ZM132.265 9.91334H126.946V7.57045H127.741V2.46954H126.946V0.126644H132.265C132.743 0.126644 133.186 0.136025 133.594 0.154787C134.002 0.168859 134.352 0.192311 134.643 0.225144C134.934 0.253287 135.201 0.293156 135.445 0.344752C136.13 0.490157 136.685 0.806765 137.112 1.29458C137.544 1.79177 137.76 2.37808 137.76 3.05351C137.76 3.56008 137.628 4.01975 137.366 4.43251C137.103 4.84058 136.758 5.14077 136.331 5.33308L137.682 7.57045H138.386V9.91334H134.861L132.729 5.91705H131.526V7.57045H132.265V9.91334Z" fill="#026A00"/>
<path d="M125.496 9.91334H116.16V7.57045H116.92V2.46954H116.146V0.126644H125.496V3.25754H122.928V2.46954H120.705V3.97519H122.64V5.9663H120.705V7.57045H122.928V6.78244H125.496V9.91334Z" fill="#026A00"/>
<path d="M112.86 9.91334H107.365V7.57045H108.21V2.46954H107.084V4.24958H105.247V0.126644H114.95V4.24958H113.113V2.46954H111.995V7.57045H112.86V9.91334Z" fill="#026A00"/>
<path d="M103.883 9.91334H94.5461V7.57045H95.306V2.46954H94.5321V0.126644H103.883V3.25754H101.314V2.46954H99.0912V3.97519H101.026V5.9663H99.0912V7.57045H101.314V6.78244H103.883V9.91334Z" fill="#026A00"/>
<path d="M86.7928 2.27254V4.13701H87.2149C87.7684 4.13701 88.1436 4.12059 88.3406 4.08776C88.5517 4.05493 88.7299 3.96112 88.8753 3.80633C89.0207 3.66093 89.0934 3.46158 89.0934 3.20829C89.0934 2.95501 89.0207 2.75332 88.8753 2.60322C88.7299 2.44843 88.5446 2.35462 88.3195 2.32179C88.1037 2.28896 87.7097 2.27254 87.1375 2.27254H86.7928ZM87.5315 9.91334H82.2125V7.57045H83.0075V2.46954H82.2125V0.126644H87.5315C88.0099 0.126644 88.4532 0.136025 88.8613 0.154787C89.2693 0.168859 89.6188 0.192311 89.9096 0.225144C90.2004 0.253287 90.4677 0.293156 90.7117 0.344752C91.3965 0.490157 91.9523 0.806765 92.3791 1.29458C92.8106 1.79177 93.0264 2.37808 93.0264 3.05351C93.0264 3.56008 92.8951 4.01975 92.6324 4.43251C92.3697 4.84058 92.025 5.14077 91.5982 5.33308L92.949 7.57045H93.6526V9.91334H90.1277L87.9959 5.91705H86.7928V7.57045H87.5315V9.91334Z" fill="#026A00"/>
<path d="M74.4802 2.27254V4.13701H74.9024C75.4559 4.13701 75.8311 4.12059 76.0281 4.08776C76.2392 4.05493 76.4174 3.96112 76.5628 3.80633C76.7082 3.66093 76.7809 3.46158 76.7809 3.20829C76.7809 2.95501 76.7082 2.75332 76.5628 2.60322C76.4174 2.44843 76.2321 2.35462 76.007 2.32179C75.7912 2.28896 75.3972 2.27254 74.825 2.27254H74.4802ZM75.219 9.91334H69.9V7.57045H70.695V2.46954H69.9V0.126644H75.219C75.6974 0.126644 76.1407 0.136025 76.5487 0.154787C76.9568 0.168859 77.3062 0.192311 77.5971 0.225144C77.8879 0.253287 78.1552 0.293156 78.3991 0.344752C79.0839 0.490157 79.6398 0.806765 80.0666 1.29458C80.4981 1.79177 80.7139 2.37808 80.7139 3.05351C80.7139 3.56008 80.5826 4.01975 80.3199 4.43251C80.0572 4.84058 79.7125 5.14077 79.2856 5.33308L80.6365 7.57045H81.3401V9.91334H77.8152L75.6833 5.91705H74.4802V7.57045H75.219V9.91334Z" fill="#026A00"/>
<path d="M68.4506 9.91334H59.1142V7.57045H59.8741V2.46954H59.1001V0.126644H68.4506V3.25754H65.8826V2.46954H63.6593V3.97519H65.5941V5.9663H63.6593V7.57045H65.8826V6.78244H68.4506V9.91334Z" fill="#026A00"/>
<path d="M54.5832 9.91334H48.638V7.57045H49.6652V2.46954H48.6028V0.126644H58.2418V3.34901H55.6385V2.46954H53.4504V3.97519H55.139V5.9663H53.4504V7.57045H54.5832V9.91334Z" fill="#026A00"/>
<path d="M164.805 25.5036H153.489V22.664H154.41V16.4818H153.472V13.6423H164.805V17.4369H161.693V16.4818H158.998V18.3066H161.343V20.7198H158.998V22.664H161.693V21.709H164.805V25.5036Z" fill="#026A00"/>
<path d="M144.092 16.2431V18.5028H144.604C145.275 18.5028 145.73 18.4829 145.968 18.4431C146.224 18.4033 146.44 18.2896 146.616 18.102C146.793 17.9258 146.881 17.6842 146.881 17.3772C146.881 17.0702 146.793 16.8258 146.616 16.6438C146.44 16.4562 146.216 16.3425 145.943 16.3028C145.681 16.263 145.204 16.2431 144.51 16.2431H144.092ZM144.988 25.5036H138.541V22.664H139.505V16.4818H138.541V13.6423H144.988C145.568 13.6423 146.105 13.6537 146.599 13.6764C147.094 13.6934 147.518 13.7219 147.87 13.7617C148.222 13.7958 148.546 13.8441 148.842 13.9066C149.672 14.0829 150.346 14.4666 150.863 15.0578C151.386 15.6604 151.648 16.371 151.648 17.1896C151.648 17.8035 151.488 18.3606 151.17 18.8609C150.852 19.3555 150.434 19.7193 149.917 19.9524L151.554 22.664H152.406V25.5036H148.134L145.551 20.6601H144.092V22.664H144.988V25.5036Z" fill="#026A00"/>
<path d="M130.517 16.6524L129.4 19.9353H131.523L130.517 16.6524ZM129.4 25.5036H124.702V22.664H125.606L127.831 16.4818H126.876V13.6423H135.403V16.4818H134.448L136.716 22.664H137.586V25.5036H131.396V22.9028H132.436L131.984 21.4105H128.948L128.428 22.9028H129.4V25.5036Z" fill="#026A00"/>
<path d="M113.787 25.6059H110.052L106.709 16.4818H105.891V13.6423H112.039V16.4818H111.152L112.551 21.5896L114.324 16.4818H113.446V13.6423H118.613V16.4818H117.735L119.534 21.5896L120.95 16.4818H120.097V13.6423H124.881V16.4818H124.062L120.685 25.6059H117.002L115.399 21.0353L113.787 25.6059Z" fill="#026A00"/>
<path d="M97.7474 16.4818V22.664H98.1823C99.2624 22.664 99.9644 22.3769 100.288 21.8028C100.607 21.2286 100.766 20.5066 100.766 19.6369C100.766 19.1139 100.698 18.5966 100.561 18.0849C100.419 17.5733 100.169 17.1782 99.8109 16.8997C99.4585 16.6211 98.8275 16.4818 97.9179 16.4818H97.7474ZM97.7474 25.5036H92.2303V22.664H93.1598V16.4818H92.2303V13.6423H97.9094C99.2055 13.6423 100.263 13.7219 101.081 13.881C101.906 14.0402 102.682 14.3671 103.409 14.8617C104.131 15.3619 104.7 16.0384 105.115 16.8911C105.319 17.3004 105.476 17.7382 105.584 18.2043C105.692 18.6705 105.746 19.1593 105.746 19.671C105.746 20.6999 105.527 21.6379 105.089 22.4849C104.657 23.3263 104.109 23.9715 103.444 24.4206C102.795 24.8697 102.085 25.1625 101.312 25.2989C100.544 25.4353 99.3562 25.5036 97.7474 25.5036Z" fill="#026A00"/>
<path d="M82.7311 16.2431V18.5028H83.2427C83.9135 18.5028 84.3683 18.4829 84.607 18.4431C84.8628 18.4033 85.0789 18.2896 85.2551 18.102C85.4313 17.9258 85.5194 17.6842 85.5194 17.3772C85.5194 17.0702 85.4313 16.8258 85.2551 16.6438C85.0789 16.4562 84.8543 16.3425 84.5814 16.3028C84.3199 16.263 83.8424 16.2431 83.1489 16.2431H82.7311ZM83.6264 25.5036H77.1799V22.664H78.1434V16.4818H77.1799V13.6423H83.6264C84.2062 13.6423 84.7435 13.6537 85.238 13.6764C85.7326 13.6934 86.1561 13.7219 86.5086 13.7617C86.861 13.7958 87.1851 13.8441 87.4807 13.9066C88.3107 14.0829 88.9843 14.4666 89.5016 15.0578C90.0246 15.6604 90.2861 16.371 90.2861 17.1896C90.2861 17.8035 90.1269 18.3606 89.8086 18.8609C89.4902 19.3555 89.0724 19.7193 88.5551 19.9524L90.1923 22.664H91.045V25.5036H86.7729L84.1892 20.6601H82.7311V22.664H83.6264V25.5036Z" fill="#026A00"/>
<path d="M69.1558 16.6524L68.0388 19.9353H70.162L69.1558 16.6524ZM68.0388 25.5036H63.3403V22.664H64.2442L66.4698 16.4818H65.5147V13.6423H74.0419V16.4818H73.0868L75.3551 22.664H76.2248V25.5036H70.0341V22.9028H71.0744L70.6225 21.4105H67.5868L67.0667 22.9028H68.0388V25.5036Z" fill="#026A00"/>
<path d="M54.8899 25.5036H48.648V22.664H49.5434V16.4818H48.631V13.6423H54.8899V16.4818H54.131V18.2896H56.8767V16.4818H56.1093V13.6423H62.3597V16.4818H61.4643V22.664H62.3597V25.5036H56.1093V22.664H56.8767V20.7198H54.131V22.664H54.8899V25.5036Z" fill="#026A00"/>
<path d="M20.9282 41.8666C14.0629 41.8666 7.19755 41.8632 0.332247 41.8767C0.0474639 41.8767 0 41.7521 0 41.3617C0.00678055 27.7209 0.00678055 14.0801 0 0.437582C0 0.0706862 0.0689356 0.00168273 0.300604 0.00168273C14.0662 0.0100978 27.8319 0.0100981 41.5987 0C41.8428 0 41.8767 0.106029 41.8767 0.43085C41.871 14.112 41.871 27.7916 41.8767 41.4727C41.8767 41.8026 41.8213 41.875 41.6043 41.875C34.713 41.8649 27.8206 41.8666 20.9293 41.8666H20.9282Z" fill="#026A00"/>
<path d="M28.15 28.3786H24.8467V23.6717H28.15C28.544 24.9522 29.2862 25.5925 30.3768 25.5925C31.1648 25.5925 31.5588 25.2759 31.5588 24.6426C31.5588 24.312 31.4216 24.0376 31.1472 23.8195C30.8517 23.5802 30.229 23.2496 29.2792 22.8274C28.0831 22.2857 27.2036 21.8178 26.6408 21.4238C26.1131 21.065 25.6628 20.569 25.2899 19.9357C24.917 19.3096 24.7306 18.6165 24.7306 17.8567C24.7306 16.4917 25.1738 15.4258 26.0603 14.6589C26.9398 13.892 28.0233 13.5086 29.3109 13.5086C30.5984 13.5086 31.6889 13.8745 32.5825 14.6062V13.6986H35.9068V17.8778H32.6247C32.2236 16.7239 31.513 16.147 30.4929 16.147C29.7752 16.147 29.4164 16.4531 29.4164 17.0652C29.4164 17.3607 29.5184 17.5823 29.7224 17.73C29.9194 17.8848 30.5562 18.2261 31.6326 18.7537C33.075 19.4714 34.0389 19.9955 34.5243 20.3262C34.7706 20.488 35.0203 20.7167 35.2736 21.0122C35.534 21.3007 35.7485 21.5997 35.9174 21.9093C36.3044 22.5988 36.4978 23.3445 36.4978 24.1466C36.4978 25.3779 36.0405 26.4192 35.1259 27.2705C34.2112 28.1359 33.0574 28.5686 31.6643 28.5686C30.3697 28.5686 29.1983 28.1851 28.15 27.4182V28.3786Z" fill="#FEFEFE"/>
<path d="M13.6493 28.3786H5.92408V24.8643H7.03221V17.2129H5.90298V13.6986H13.6493V17.2129H12.71V19.4503H16.1083V17.2129H15.1585V13.6986H22.8943V17.2129H21.7861V24.8643H22.8943V28.3786H15.1585V24.8643H16.1083V22.458H12.71V24.8643H13.6493V28.3786Z" fill="#FEFEFE"/>
<path d="M157.783 41.8047H155.005V37.8455H157.783C158.115 38.9226 158.739 39.4612 159.656 39.4612C160.319 39.4612 160.65 39.1949 160.65 38.6622C160.65 38.3841 160.535 38.1533 160.304 37.9698C160.056 37.7686 159.532 37.4905 158.733 37.1354C157.727 36.6797 156.987 36.2861 156.514 35.9547C156.07 35.6529 155.691 35.2357 155.377 34.7031C155.064 34.1764 154.907 33.5934 154.907 32.9543C154.907 31.8062 155.28 30.9096 156.026 30.2645C156.765 29.6195 157.677 29.2969 158.76 29.2969C159.843 29.2969 160.76 29.6047 161.512 30.2202V29.4567H164.308V32.972H161.547C161.21 32.0015 160.612 31.5162 159.754 31.5162C159.15 31.5162 158.848 31.7736 158.848 32.2885C158.848 32.5371 158.934 32.7235 159.106 32.8478C159.272 32.978 159.807 33.265 160.713 33.7088C161.926 34.3125 162.737 34.7534 163.145 35.0315C163.352 35.1676 163.562 35.36 163.775 35.6085C163.994 35.8512 164.175 36.1027 164.317 36.3631C164.642 36.943 164.805 37.5704 164.805 38.245C164.805 39.2807 164.42 40.1565 163.651 40.8726C162.882 41.6005 161.911 41.9645 160.739 41.9645C159.65 41.9645 158.665 41.642 157.783 40.9969V41.8047Z" fill="#026A00"/>
<path d="M144.308 41.8047H139.239V38.8486H140.322V32.4128H139.239V29.4567H145.089L149.581 35.9103V32.4128H148.578V29.4567H153.558V32.4128H152.484V41.9645H148.418L143.216 34.4989V38.8486H144.308V41.8047Z" fill="#026A00"/>
<path d="M129.181 35.5996C129.181 36.9726 129.314 37.8988 129.581 38.3782C129.835 38.8634 130.235 39.1061 130.779 39.1061C131.318 39.1061 131.72 38.8723 131.986 38.4048C132.253 37.9314 132.386 36.9963 132.386 35.5996C132.386 34.2444 132.256 33.3212 131.995 32.83C131.741 32.3447 131.335 32.1021 130.779 32.1021C130.247 32.1021 129.847 32.3359 129.581 32.8034C129.314 33.2709 129.181 34.203 129.181 35.5996ZM123.82 35.5996C123.82 34.5699 124.071 33.5727 124.574 32.6081C125.071 31.6494 125.844 30.8415 126.891 30.1846C127.264 29.9538 127.646 29.7704 128.036 29.6343C128.433 29.4982 128.862 29.3946 129.323 29.3236C129.785 29.2466 130.27 29.2082 130.779 29.2082C132.993 29.2082 134.706 29.8562 135.919 31.1522C136.523 31.7914 136.978 32.4838 137.286 33.2295C137.594 33.9751 137.748 34.7652 137.748 35.5996C137.748 37.3218 137.12 38.8191 135.866 40.0914C134.611 41.3638 132.916 42 130.779 42C128.714 42 127.039 41.4023 125.755 40.2068C124.465 39.0173 123.82 37.4816 123.82 35.5996Z" fill="#026A00"/>
<path d="M122.266 41.8047H115.227V38.8486H116.363V32.4128H115.227V29.4567H122.266V32.4128H121.139V38.8486H122.266V41.8047Z" fill="#026A00"/>
<path d="M111.25 41.8047H104.317V38.8486H105.382V32.4128H103.962V34.6587H101.645V29.4567H113.886V34.6587H111.569V32.4128H110.158V38.8486H111.25V41.8047Z" fill="#026A00"/>
<path d="M89.1724 32.4128H88.2226V29.4567H94.5431V32.4128H93.9572V36.5761C93.9572 37.5704 94.0519 38.248 94.2412 38.609C94.4306 38.964 94.7709 39.1416 95.2621 39.1416C95.6705 39.1416 95.9664 38.9907 96.1498 38.6889C96.3333 38.393 96.425 37.7864 96.425 36.8691V32.4128H95.8036V29.4567H100.446V32.4128H99.4698V36.8868C99.4698 38.029 99.3041 38.964 98.9727 39.692C98.6413 40.414 98.0909 40.9791 97.3216 41.3875C96.5522 41.7958 95.6054 42 94.4809 42C93.5755 42 92.7736 41.8905 92.0752 41.6715C91.3651 41.4585 90.8029 41.133 90.3886 40.6951C89.9743 40.2631 89.6696 39.7393 89.4743 39.1238C89.2731 38.5261 89.1724 37.6088 89.1724 36.372V32.4128Z" fill="#026A00"/>
<path d="M87.397 41.8047H75.6438V38.8486H76.7535V32.4128H75.6438V29.4567H82.7011V32.4128H81.5293V38.8486H84.4499V36.8691H87.397V41.8047Z" fill="#026A00"/>
<path d="M65.5329 35.5996C65.5329 36.9726 65.666 37.8988 65.9323 38.3782C66.1868 38.8634 66.5863 39.1061 67.1307 39.1061C67.6693 39.1061 68.0717 38.8723 68.338 38.4048C68.6043 37.9314 68.7375 36.9963 68.7375 35.5996C68.7375 34.2444 68.6073 33.3212 68.3469 32.83C68.0924 32.3447 67.687 32.1021 67.1307 32.1021C66.5981 32.1021 66.1986 32.3359 65.9323 32.8034C65.666 33.2709 65.5329 34.203 65.5329 35.5996ZM60.1711 35.5996C60.1711 34.5699 60.4226 33.5727 60.9257 32.6081C61.4228 31.6494 62.1951 30.8415 63.2426 30.1846C63.6154 29.9538 63.9971 29.7704 64.3877 29.6343C64.7842 29.4982 65.2133 29.3946 65.6749 29.3236C66.1365 29.2466 66.6218 29.2082 67.1307 29.2082C69.3441 29.2082 71.0574 29.8562 72.2705 31.1522C72.8742 31.7914 73.3299 32.4838 73.6376 33.2295C73.9454 33.9751 74.0992 34.7652 74.0992 35.5996C74.0992 37.3218 73.4719 38.8191 72.2173 40.0914C70.9627 41.3638 69.2671 42 67.1307 42C65.0653 42 63.3905 41.4023 62.1063 40.2068C60.8162 39.0173 60.1711 37.4816 60.1711 35.5996Z" fill="#026A00"/>
<path d="M51.5071 41.8047H48.7286V37.8455H51.5071C51.8385 38.9226 52.4629 39.4612 53.3802 39.4612C54.043 39.4612 54.3744 39.1949 54.3744 38.6622C54.3744 38.3841 54.259 38.1533 54.0282 37.9698C53.7796 37.7686 53.2559 37.4905 52.457 37.1354C51.4509 36.6797 50.7111 36.2861 50.2377 35.9547C49.7939 35.6529 49.4151 35.2357 49.1014 34.7031C48.7878 34.1764 48.631 33.5934 48.631 32.9543C48.631 31.8062 49.0038 30.9096 49.7495 30.2645C50.4892 29.6195 51.4006 29.2969 52.4836 29.2969C53.5666 29.2969 54.4839 29.6047 55.2355 30.2202V29.4567H58.0318V32.972H55.271C54.9337 32.0015 54.3359 31.5162 53.4778 31.5162C52.8742 31.5162 52.5724 31.7736 52.5724 32.2885C52.5724 32.5371 52.6582 32.7235 52.8298 32.8478C52.9955 32.978 53.5311 33.265 54.4365 33.7088C55.6497 34.3125 56.4605 34.7534 56.8689 35.0315C57.076 35.1676 57.2861 35.36 57.4991 35.6085C57.7181 35.8512 57.8986 36.1027 58.0406 36.3631C58.3661 36.943 58.5289 37.5704 58.5289 38.245C58.5289 39.2807 58.1442 40.1565 57.3749 40.8726C56.6055 41.6005 55.635 41.9645 54.4632 41.9645C53.3743 41.9645 52.3889 41.642 51.5071 40.9969V41.8047Z" fill="#026A00"/>
</svg>
